<?xml version="1.0" encoding="UTF-8"?><svg xmlns="http://www.w3.org/2000/svg" xmlns:xlink="http://www.w3.org/1999/xlink" viewBox="0 0 30 30"><defs><style>.e{fill:#e52331;}.f{fill:url(#d);}</style><radialGradient id="d" cx="8.14" cy="7.27" fx="8.14" fy="7.27" r="33.65" gradientTransform="translate(0 .05)" gradientUnits="userSpaceOnUse"><stop offset="0" stop-color="#9e1627" stop-opacity=".98"/><stop offset=".06" stop-color="#7c131e" stop-opacity=".99"/><stop offset=".13" stop-color="#5d1117" stop-opacity=".99"/><stop offset=".21" stop-color="#440f11" stop-opacity=".99"/><stop offset=".29" stop-color="#300e0c" stop-opacity="1"/><stop offset=".39" stop-color="#230d09" stop-opacity="1"/><stop offset=".52" stop-color="#1b0d07" stop-opacity="1"/><stop offset=".77" stop-color="#190d07"/></radialGradient></defs><g id="a"/><g id="b"><g id="c"><rect class="e" width="30" height="30"/><rect class="f" x="1.25" y="1.28" width="27.5" height="27.44"/><g><path class="e" d="M9.28,16.22l1.6,.51c-.25,.89-.65,1.55-1.22,1.98-.57,.43-1.29,.65-2.17,.65-1.08,0-1.97-.37-2.67-1.11s-1.05-1.75-1.05-3.04c0-1.36,.35-2.41,1.05-3.16,.7-.75,1.62-1.13,2.77-1.13,1,0,1.81,.29,2.43,.89,.37,.35,.65,.85,.83,1.5l-1.63,.39c-.1-.42-.3-.76-.6-1-.31-.25-.68-.37-1.12-.37-.61,0-1.1,.22-1.47,.65-.38,.43-.57,1.14-.57,2.11,0,1.03,.19,1.77,.56,2.2,.37,.44,.85,.66,1.45,.66,.44,0,.81-.14,1.13-.42,.31-.28,.54-.72,.68-1.31Z"/><path class="e" d="M11.87,16.56l1.6-.16c.1,.54,.29,.93,.59,1.19,.29,.25,.69,.38,1.19,.38,.53,0,.93-.11,1.2-.34,.27-.22,.4-.49,.4-.79,0-.19-.06-.36-.17-.49-.11-.13-.31-.25-.59-.35-.19-.07-.63-.19-1.32-.36-.88-.22-1.5-.49-1.86-.81-.5-.45-.75-1-.75-1.64,0-.42,.12-.8,.35-1.17,.23-.36,.57-.64,1.02-.83s.98-.28,1.61-.28c1.03,0,1.8,.22,2.31,.67s.79,1.05,.81,1.8l-1.65,.07c-.07-.42-.22-.72-.46-.9-.23-.18-.58-.28-1.04-.28s-.85,.1-1.12,.29c-.17,.13-.26,.29-.26,.51,0,.19,.08,.36,.25,.5,.21,.17,.71,.36,1.51,.54,.8,.19,1.39,.39,1.78,.59,.38,.2,.69,.48,.9,.83s.33,.78,.33,1.3c0,.47-.13,.91-.39,1.31s-.63,.71-1.1,.91-1.07,.3-1.78,.3c-1.03,0-1.82-.24-2.38-.71s-.88-1.17-.99-2.08Z"/><path class="e" d="M19.48,16.56l1.6-.16c.1,.54,.29,.93,.59,1.19,.29,.25,.69,.38,1.19,.38,.53,0,.93-.11,1.2-.34,.27-.22,.4-.49,.4-.79,0-.19-.06-.36-.17-.49-.11-.13-.31-.25-.59-.35-.19-.07-.63-.19-1.32-.36-.88-.22-1.5-.49-1.86-.81-.5-.45-.75-1-.75-1.64,0-.42,.12-.8,.35-1.17,.23-.36,.57-.64,1.02-.83s.98-.28,1.61-.28c1.03,0,1.8,.22,2.31,.67s.79,1.05,.81,1.8l-1.65,.07c-.07-.42-.22-.72-.46-.9-.23-.18-.58-.28-1.04-.28s-.85,.1-1.12,.29c-.17,.13-.26,.29-.26,.51,0,.19,.08,.36,.25,.5,.21,.17,.71,.36,1.51,.54,.8,.19,1.39,.39,1.78,.59,.38,.2,.69,.48,.9,.83s.33,.78,.33,1.3c0,.47-.13,.91-.39,1.31s-.63,.71-1.1,.91-1.07,.3-1.78,.3c-1.03,0-1.82-.24-2.38-.71s-.88-1.17-.99-2.08Z"/></g></g></g></svg>