<?xml version="1.0" encoding="UTF-8"?><svg xmlns="http://www.w3.org/2000/svg" viewBox="0 0 31.26 31.26"><defs><style>.d{fill:#161616;}.e{fill-rule:evenodd;}.e,.f{fill:#d2d2d2;}</style></defs><g id="a"/><g id="b"><g id="c"><g><rect class="d" width="31.26" height="31.26"/><g><path class="e" d="M15.63,3.44C8.73,3.44,3.13,9.03,3.13,15.94c0,5.52,3.58,10.21,8.55,11.86,.62,.12,.85-.27,.85-.6,0-.3-.01-1.28-.02-2.33-3.48,.76-4.21-1.47-4.21-1.47-.57-1.44-1.39-1.83-1.39-1.83-1.13-.78,.09-.76,.09-.76,1.26,.09,1.92,1.29,1.92,1.29,1.11,1.91,2.92,1.36,3.64,1.04,.11-.81,.44-1.36,.79-1.67-2.78-.32-5.7-1.39-5.7-6.18,0-1.36,.49-2.48,1.29-3.36-.13-.31-.56-1.59,.12-3.31,0,0,1.05-.34,3.44,1.28,1-.28,2.07-.42,3.13-.42,1.06,0,2.13,.14,3.13,.42,2.39-1.62,3.43-1.28,3.43-1.28,.68,1.72,.25,2.99,.12,3.31,.8,.88,1.29,1.99,1.29,3.36,0,4.8-2.92,5.86-5.71,6.17,.45,.39,.85,1.15,.85,2.31,0,1.67-.01,3.02-.01,3.43,0,.33,.22,.72,.86,.6,4.96-1.65,8.54-6.34,8.54-11.86,0-6.9-5.6-12.5-12.5-12.5Z"/><path class="f" d="M7.86,21.38c-.03,.06-.13,.08-.21,.04-.09-.04-.14-.13-.11-.19,.03-.06,.12-.08,.22-.04,.09,.04,.14,.13,.11,.19h0Z"/><path class="f" d="M8.37,21.95c-.06,.06-.18,.03-.26-.06-.08-.09-.1-.2-.04-.26,.06-.06,.17-.03,.26,.06,.08,.09,.1,.2,.04,.26h0Z"/><path class="f" d="M8.86,22.67c-.08,.05-.2,0-.28-.11-.08-.11-.08-.24,0-.3,.08-.05,.2,0,.28,.1,.08,.11,.08,.25,0,.3h0Z"/><path class="f" d="M9.54,23.36c-.07,.08-.21,.06-.32-.05-.11-.1-.14-.24-.07-.32,.07-.08,.22-.05,.32,.05,.11,.1,.14,.24,.07,.32h0Z"/><path class="f" d="M10.47,23.77c-.03,.1-.17,.14-.31,.1-.14-.04-.23-.16-.21-.26,.03-.1,.17-.14,.31-.1,.14,.04,.23,.16,.2,.26h0Z"/><path class="f" d="M11.49,23.84c0,.1-.12,.19-.27,.19-.15,0-.27-.08-.27-.18,0-.1,.12-.19,.27-.19,.15,0,.27,.08,.27,.18h0Z"/><path class="f" d="M12.44,23.68c.02,.1-.09,.2-.23,.23-.15,.03-.28-.04-.3-.14-.02-.1,.09-.21,.23-.23,.15-.03,.28,.03,.3,.14h0Z"/></g></g></g></g></svg>