<?xml version="1.0" encoding="UTF-8"?><svg xmlns="http://www.w3.org/2000/svg" xmlns:xlink="http://www.w3.org/1999/xlink" viewBox="0 0 30 30"><defs><style>.e{fill:#e52331;}.f{fill:url(#d);}</style><radialGradient id="d" cx="8.14" cy="7.36" fx="8.14" fy="7.36" r="33.65" gradientTransform="translate(0 .2)" gradientUnits="userSpaceOnUse"><stop offset="0" stop-color="#9e1627" stop-opacity=".98"/><stop offset=".06" stop-color="#7c131e" stop-opacity=".99"/><stop offset=".13" stop-color="#5d1117" stop-opacity=".99"/><stop offset=".21" stop-color="#440f11" stop-opacity=".99"/><stop offset=".29" stop-color="#300e0c" stop-opacity="1"/><stop offset=".39" stop-color="#230d09" stop-opacity="1"/><stop offset=".52" stop-color="#1b0d07" stop-opacity="1"/><stop offset=".77" stop-color="#190d07"/></radialGradient></defs><g id="a"/><g id="b"><g id="c"><rect class="e" width="30" height="30"/><rect class="f" x="1.25" y="1.37" width="27.5" height="27.44"/><g><path class="e" d="M3.84,18.3v-6.01h1.21v2.37h2.38v-2.37h1.21v6.01h-1.21v-2.63h-2.38v2.63h-1.21Z"/><path class="e" d="M11.26,18.3v-5h-1.78v-1.02h4.78v1.02h-1.78v5h-1.21Z"/><path class="e" d="M15.02,18.3v-6.01h1.82l1.09,4.1,1.08-4.1h1.82v6.01h-1.13v-4.73l-1.19,4.73h-1.17l-1.19-4.73v4.73h-1.13Z"/><path class="e" d="M22.07,18.3v-5.96h1.21v4.95h3.02v1.01h-4.23Z"/></g></g></g></svg>