<?xml version="1.0" encoding="UTF-8"?><svg xmlns="http://www.w3.org/2000/svg" xmlns:xlink="http://www.w3.org/1999/xlink" viewBox="0 0 30 30"><defs><style>.e{fill:#e52331;}.f{fill:url(#d);}</style><radialGradient id="d" cx="8.14" cy="7.45" fx="8.14" fy="7.45" r="33.65" gradientTransform="translate(0 .2)" gradientUnits="userSpaceOnUse"><stop offset="0" stop-color="#9e1627" stop-opacity=".98"/><stop offset=".06" stop-color="#7c131e" stop-opacity=".99"/><stop offset=".13" stop-color="#5d1117" stop-opacity=".99"/><stop offset=".21" stop-color="#440f11" stop-opacity=".99"/><stop offset=".29" stop-color="#300e0c" stop-opacity="1"/><stop offset=".39" stop-color="#230d09" stop-opacity="1"/><stop offset=".52" stop-color="#1b0d07" stop-opacity="1"/><stop offset=".77" stop-color="#190d07"/></radialGradient></defs><g id="a"/><g id="b"><g id="c"><rect class="e" width="30" height="30"/><rect class="f" x="1.25" y="1.46" width="27.5" height="27.44"/><g><path class="e" d="M10.21,8.92h2.44v7.67c0,1-.09,1.77-.26,2.32-.24,.71-.67,1.27-1.29,1.7-.62,.43-1.44,.64-2.46,.64-1.2,0-2.12-.33-2.76-1-.64-.67-.97-1.65-.98-2.95l2.31-.26c.03,.69,.13,1.18,.31,1.47,.26,.44,.67,.65,1.21,.65s.93-.16,1.16-.47c.23-.31,.34-.96,.34-1.94v-7.83Z"/><path class="e" d="M14.64,17.1l2.38-.23c.14,.8,.43,1.39,.87,1.76s1.03,.56,1.77,.56c.79,0,1.38-.17,1.78-.5,.4-.33,.6-.72,.6-1.17,0-.29-.08-.53-.25-.73-.17-.2-.46-.38-.88-.53-.29-.1-.94-.28-1.96-.53-1.31-.33-2.23-.72-2.76-1.2-.74-.67-1.12-1.48-1.12-2.44,0-.62,.17-1.19,.53-1.73,.35-.54,.85-.95,1.51-1.23,.66-.28,1.45-.42,2.39-.42,1.52,0,2.67,.33,3.44,1,.77,.67,1.17,1.56,1.21,2.67l-2.45,.11c-.1-.62-.33-1.07-.67-1.34-.34-.27-.86-.41-1.55-.41s-1.27,.15-1.67,.44c-.26,.19-.39,.44-.39,.75,0,.29,.12,.53,.36,.74,.31,.26,1.06,.53,2.25,.81s2.07,.57,2.64,.87c.57,.3,1.02,.71,1.34,1.23,.32,.52,.48,1.16,.48,1.93,0,.69-.19,1.34-.58,1.95s-.93,1.06-1.64,1.35c-.71,.29-1.58,.44-2.64,.44-1.53,0-2.71-.35-3.53-1.06-.82-.71-1.31-1.74-1.47-3.1Z"/></g></g></g></svg>