<svg xmlns="http://www.w3.org/2000/svg" viewBox="0 0 113.39 113.39"><defs><style>.cls-1{fill:#161616;}.cls-2{fill:#d3d3d3;}</style></defs><g id="Laag_2" data-name="Laag 2"><g id="Laag_1-2" data-name="Laag 1"><rect class="cls-1" width="113.39" height="113.39" rx="9.97"/><path class="cls-2" d="M18,23.92a7.09,7.09,0,0,1,2.29-5.38,8.24,8.24,0,0,1,5.91-2.16,8.42,8.42,0,0,1,5.88,2.14,6.94,6.94,0,0,1,2.37,5.4,7.08,7.08,0,0,1-2.34,5.43,8.34,8.34,0,0,1-5.91,2.17,8.18,8.18,0,0,1-5.89-2.22A7.16,7.16,0,0,1,18,23.92Zm1.11,70.26V41.32h14V94.18Z"/><path class="cls-2" d="M96.52,94.18h-14V64.56Q82.54,51,72.73,51a9.94,9.94,0,0,0-8,3.7,14.07,14.07,0,0,0-3.1,9.38V94.18h-14V41.32h14v8.5h.15q5.84-9.75,17.15-9.75,17.61,0,17.61,21.77Z"/></g></g></svg>