<svg xmlns="http://www.w3.org/2000/svg" viewBox="0 0 113.39 113.39"><defs><style>.cls-1{fill:#161616;}.cls-2{fill:#d3d3d3;}</style></defs><g id="Laag_2" data-name="Laag 2"><g id="Laag_1-2" data-name="Laag 1"><rect class="cls-1" width="113.39" height="113.39" rx="9.97"/><path class="cls-2" d="M18,26.38A7.09,7.09,0,0,1,20.3,21a8.24,8.24,0,0,1,5.91-2.16A8.42,8.42,0,0,1,32.09,21a7,7,0,0,1,2.37,5.4,7.11,7.11,0,0,1-2.34,5.44A8.38,8.38,0,0,1,26.21,34a8.22,8.22,0,0,1-5.89-2.21A7.19,7.19,0,0,1,18,26.38Z"/><path class="cls-2" d="M96.52,94.18h-14V64.56Q82.54,51,72.73,51a9.94,9.94,0,0,0-8,3.7,14.07,14.07,0,0,0-3.1,9.38V94.18h-14V41.32h14v8.5h.15q5.84-9.75,17.15-9.75,17.61,0,17.61,21.77Z"/><path class="cls-2" d="M30.16,70.34V88.73a2.83,2.83,0,0,1-2.95,2.67h-2a2.82,2.82,0,0,1-2.94-2.67V70.34a5.06,5.06,0,0,0-3.92,4.77v16a5.26,5.26,0,0,0,5.49,5h4.71a5.26,5.26,0,0,0,5.49-5v-16A5.07,5.07,0,0,0,30.16,70.34Z"/><path class="cls-2" d="M30.16,66.49V48.1a2.82,2.82,0,0,0-2.95-2.66h-2a2.81,2.81,0,0,0-2.94,2.66V66.49a5.06,5.06,0,0,1-3.92-4.76v-16a5.26,5.26,0,0,1,5.49-5h4.71a5.26,5.26,0,0,1,5.49,5v16A5.07,5.07,0,0,1,30.16,66.49Z"/><rect class="cls-2" x="24.03" y="56.46" width="4.41" height="23.92" rx="1.64"/></g></g></svg>