<?xml version="1.0" encoding="UTF-8"?><svg xmlns="http://www.w3.org/2000/svg" viewBox="0 0 25 25"><defs><style>.d{fill:#161616;}.e{fill:#d2d2d2;}.f{fill:#31a8ff;}</style></defs><g id="a"/><g id="b"><g id="c"><rect class="d" width="25" height="25"/><path class="e" d="M3.97,5.27c0-.47,.17-.87,.5-1.19,.34-.32,.77-.48,1.3-.48s.95,.16,1.3,.47c.35,.31,.52,.71,.52,1.19s-.17,.88-.52,1.2c-.34,.32-.78,.48-1.3,.48s-.96-.16-1.3-.49c-.34-.33-.51-.72-.51-1.19Zm.24,15.49V9.11h3.08v11.65h-3.08Z"/><path class="e" d="M21.28,20.77h-3.08v-6.53c0-2-.72-2.99-2.16-2.99-.72,0-1.31,.27-1.77,.81-.45,.54-.68,1.23-.68,2.07v6.64h-3.09V9.11h3.09v1.87h.03c.86-1.43,2.12-2.15,3.78-2.15,2.59,0,3.88,1.6,3.88,4.8v7.13Z"/><rect class="d" x="3.88" y="8.62" width="3.8" height="12.64"/><g><path class="f" d="M6.63,15.17v4.05c-.02,.34-.31,.6-.65,.59h-.44c-.34,.01-.63-.25-.65-.59v-4.05c-.49,.11-.85,.55-.86,1.05v3.53c.03,.64,.57,1.13,1.21,1.1h1.04c.64,.03,1.18-.46,1.21-1.1v-3.53c-.02-.5-.37-.93-.86-1.05Z"/><path class="f" d="M6.63,14.32v-4.05c-.02-.34-.31-.6-.65-.59h-.44c-.34-.02-.63,.25-.65,.59v4.05c-.49-.11-.85-.54-.86-1.05v-3.53c.03-.64,.57-1.13,1.21-1.1h1.04c.64-.03,1.18,.46,1.21,1.1v3.53c-.02,.5-.37,.93-.86,1.05Z"/><rect class="f" x="5.28" y="12.11" width=".97" height="5.27" rx=".36" ry=".36"/></g></g></g></svg>