<svg xmlns="http://www.w3.org/2000/svg" viewBox="0 0 37.17 31.89"><defs><style>.cls-1{fill:#d3d3d3;}.cls-2{fill:#4bb0e4;}</style></defs><g id="Laag_2" data-name="Laag 2"><g id="Laag_1-2" data-name="Laag 1"><path class="cls-1" d="M0,14.32V0H4.33L6.92,9.77,9.49,0h4.34V14.32H11.14V3.05L8.3,14.32H5.52L2.69,3.05V14.32Z"/><path class="cls-1" d="M18.73,7.11l-2.49-.45a3.9,3.9,0,0,1,1.45-2.23,5.27,5.27,0,0,1,3-.72,6.56,6.56,0,0,1,2.74.44,2.66,2.66,0,0,1,1.26,1.1,5.56,5.56,0,0,1,.37,2.46l0,3.2a10.87,10.87,0,0,0,.13,2,6,6,0,0,0,.49,1.4H23q-.11-.29-.27-.81c0-.17-.07-.27-.09-.33a4.89,4.89,0,0,1-1.51,1,4.25,4.25,0,0,1-1.71.34,3.54,3.54,0,0,1-2.52-.87,2.87,2.87,0,0,1-.92-2.2,2.94,2.94,0,0,1,.42-1.56,2.8,2.8,0,0,1,1.17-1.06,10,10,0,0,1,2.19-.64,14.66,14.66,0,0,0,2.66-.67V7.28A1.42,1.42,0,0,0,22,6.15a2.29,2.29,0,0,0-1.47-.34,2,2,0,0,0-1.15.29A2,2,0,0,0,18.73,7.11ZM22.4,9.34c-.35.11-.91.25-1.67.42a5.14,5.14,0,0,0-1.49.47,1.16,1.16,0,0,0-.54,1,1.35,1.35,0,0,0,.43,1,1.5,1.5,0,0,0,1.09.42,2.42,2.42,0,0,0,1.42-.49,1.71,1.71,0,0,0,.65-.91,5,5,0,0,0,.11-1.34Z"/><path class="cls-2" d="M26.5,4h2.92l2.48,7.36L34.33,4h2.84l-3.66,10-.66,1.8a7.13,7.13,0,0,1-.69,1.39,3.11,3.11,0,0,1-.75.78,3.44,3.44,0,0,1-1,.46,5.5,5.5,0,0,1-1.41.17,7.36,7.36,0,0,1-1.55-.17l-.24-2.15a5.64,5.64,0,0,0,1.16.13,1.75,1.75,0,0,0,1.42-.56,4.07,4.07,0,0,0,.7-1.43Z"/><path class="cls-1" d="M0,31.89V14H2.69V28.32Z"/><path class="cls-1" d="M5.52,14.32H8.3L6.91,16.94Zm0,14V18H8.32V28.32Z"/><path class="cls-1" d="M20.57,28.32H17.82V23a8.59,8.59,0,0,0-.17-2.17,1.6,1.6,0,0,0-.57-.77,1.69,1.69,0,0,0-1-.27,2.22,2.22,0,0,0-1.28.39,2,2,0,0,0-.77,1,8.92,8.92,0,0,0-.21,2.38v4.7H11.11V18h2.55v1.52a4.17,4.17,0,0,1,3.42-1.76,4.07,4.07,0,0,1,1.66.33,2.81,2.81,0,0,1,1.14.83A3.34,3.34,0,0,1,20.42,20a8.59,8.59,0,0,1,.15,1.84Z"/><path class="cls-2" d="M32.78,31.89,30,28.32V23a8,8,0,0,0-.18-2.17,1.48,1.48,0,0,0-.57-.77,1.64,1.64,0,0,0-.95-.27,2.2,2.2,0,0,0-1.28.39,2,2,0,0,0-.78,1,8.92,8.92,0,0,0-.21,2.38v4.7H23.33V18h2.55v1.52a4.15,4.15,0,0,1,3.42-1.76A4.1,4.1,0,0,1,31,18a2.71,2.71,0,0,1,1.13.83A3,3,0,0,1,32.63,20a8.59,8.59,0,0,1,.15,1.84Z"/></g></g></svg>