<?xml version="1.0" encoding="UTF-8"?><svg xmlns="http://www.w3.org/2000/svg" viewBox="0 0 25 25"><defs><style>.d{fill:none;stroke:#d2d2d2;stroke-miterlimit:10;stroke-width:.75px;}.e{fill:#161616;}.f{fill:#31a8ff;}</style></defs><g id="a"/><g id="b"><g id="c"><rect class="e" width="25" height="25"/><polygon class="d" points="21.48 6.77 12.78 .87 4.08 6.77 4.08 6.87 4.08 18.12 21.48 18.12 21.48 6.87 21.48 6.77"/><polyline class="f" points="7.03 12.85 7.03 2.68 18.36 2.68 18.36 12.96"/><polygon class="e" points="6.88 8.83 11.38 11.56 5.4 16.33 5.56 8.3 6.88 8.83"/><polygon class="e" points="18.56 8.83 14.06 11.56 20.04 16.33 19.89 8.3 18.56 8.83"/><polygon class="e" points="8.01 15.11 11.38 12.07 12.7 12.96 14.06 12.07 17.63 14.94 8.01 15.11"/><line class="d" x1="21.49" y1="18.11" x2="14.21" y2="11.75"/><polyline class="d" points="3.99 6.79 12.7 12.69 21.4 6.79"/><line class="d" x1="4.07" y1="18.12" x2="11.35" y2="11.76"/></g></g></svg>