<?xml version="1.0" encoding="UTF-8"?><svg xmlns="http://www.w3.org/2000/svg" xmlns:xlink="http://www.w3.org/1999/xlink" viewBox="0 0 30 30"><defs><style>.e{fill:url(#d);}.f{fill:#31a8ff;}</style><radialGradient id="d" cx="-4151.59" cy="118.89" fx="-4151.59" fy="118.89" r="0" gradientTransform="translate(9298475.31 270562.32) scale(2239.73 -2275.64)" gradientUnits="userSpaceOnUse"><stop offset="0" stop-color="#125e7c" stop-opacity=".98"/><stop offset=".16" stop-color="#0b465f" stop-opacity=".99"/><stop offset=".35" stop-color="#063146" stop-opacity=".99"/><stop offset=".54" stop-color="#022234" stop-opacity="1"/><stop offset=".75" stop-color="#001929" stop-opacity="1"/><stop offset="1" stop-color="#001726"/></radialGradient></defs><g id="a"/><g id="b"><g id="c"><rect class="f" width="29.32" height="30"/><path class="e" d="M1.07,1.28H27.95V28.72H1.07V1.28Z"/><g><path class="f" d="M6.31,7.34h4.11c2.9,0,5.04,1.05,5.04,4.22s-2.15,4.43-4.96,4.43h-1.88v5.03h-2.31V7.34Zm4,6.71c1.95,0,2.87-.81,2.87-2.49s-1.01-2.28-2.95-2.28h-1.6v4.77h1.68Z"/><path class="f" d="M15.98,19.85l1.07-1.53c.87,.71,1.71,1.15,2.7,1.15,1.07,0,1.57-.53,1.57-1.23,0-.86-1.06-1.25-2.11-1.67-1.28-.51-2.75-1.28-2.75-3s1.37-3.07,3.57-3.07c1.36,0,2.46,.58,3.25,1.23l-1.05,1.48c-.69-.53-1.38-.9-2.15-.9-.99,0-1.45,.49-1.45,1.14,0,.81,.99,1.12,2.05,1.53,1.32,.52,2.81,1.19,2.81,3.1,0,1.77-1.33,3.19-3.8,3.19-1.34,0-2.75-.6-3.71-1.43Z"/></g></g></g></svg>