<svg xmlns="http://www.w3.org/2000/svg" viewBox="0 0 113.39 113.39"><defs><style>.cls-1{fill:#161616;}.cls-2{fill:#d3d3d3;}</style></defs><g id="Laag_2" data-name="Laag 2"><g id="Laag_1-2" data-name="Laag 1"><rect class="cls-1" width="113.39" height="113.39" rx="9.97"/><path class="cls-2" d="M56.07,43.32c-.17-.91-1.69-9.8,4.51-16.1A17.75,17.75,0,0,1,82,24.65a24.94,24.94,0,0,1,3,2.53,1.1,1.1,0,0,0,.46.47,1.19,1.19,0,0,0,.87,0c.85-.27,1.74-.42,2.59-.72a34,34,0,0,0,3.79-1.33,15.05,15.05,0,0,0,3.13-1.51,8,8,0,0,0,.87-.67,3.7,3.7,0,0,1-.18.8,20.15,20.15,0,0,1-1.89,3.59,14.72,14.72,0,0,1-3.11,3.43A18,18,0,0,1,89.05,33a10.14,10.14,0,0,0,1.35,0,30.41,30.41,0,0,0,5.85-1.63c1.87-.78,2.66-1,2.89-1.1a5.37,5.37,0,0,1-1.25,2,48.38,48.38,0,0,1-4.23,4.36,18.44,18.44,0,0,1-3,2.43.49.49,0,0,0-.33.23.37.37,0,0,0,0,.29v2.87q-.18,4.71-.82,9.38A49.13,49.13,0,0,1,78.38,74.4a49.59,49.59,0,0,1-17,12.71,51.34,51.34,0,0,1-20.3,4.11,50.24,50.24,0,0,1-16.83-2.87c-2.77-1-4.48-1.88-6.15-2.55a14.79,14.79,0,0,1-2.94-1.63,4,4,0,0,1-.91-.77,13.19,13.19,0,0,0,1.54,0h5.54c3.37,0,6.5-1.17,9.42-2.26a40.31,40.31,0,0,0,6.88-3.39c.64-.39,1.17-.74,1.54-1l.77-.69H39a16,16,0,0,1-6.92-1.92,17.38,17.38,0,0,1-4.81-3.66,14.79,14.79,0,0,1-3.46-5.81c-.09-.28-.15-.52-.2-.69l1,.16c.27,0,.69.11,1.19.15a15.43,15.43,0,0,0,2.88-.12c.59-.06,1.36-.15,2.27-.3l.66-.23-.83-.08c-5.48-.71-8.94-5.25-9.6-6.12a18.26,18.26,0,0,1-3.5-9.15c-.08-.73-.11-1.35-.13-1.77l.81.32a15.44,15.44,0,0,0,1.49.68,15.26,15.26,0,0,0,5,1.06h.49l-.53-.4a18.45,18.45,0,0,1-6.31-8.61,18.8,18.8,0,0,1-.77-7.85,14.6,14.6,0,0,1,1.5-5.12A12.3,12.3,0,0,1,20,25.28c.17.22.41.54.71.91A41.49,41.49,0,0,0,27.4,32.7a52.61,52.61,0,0,0,8.47,5.44,53.49,53.49,0,0,0,9.38,3.74,27.93,27.93,0,0,0,8.15,1.54A23.83,23.83,0,0,0,56.07,43.32Z"/></g></g></svg>